<?xml version="1.0" encoding="utf-8"?>
<!-- Generator: Adobe Illustrator 24.1.2, SVG Export Plug-In . SVG Version: 6.00 Build 0)  -->
<svg version="1.1" id="Layer_1" xmlns="http://www.w3.org/2000/svg" xmlns:xlink="http://www.w3.org/1999/xlink" x="0px" y="0px"
	 viewBox="0 0 841.9 595.3" style="enable-background:new 0 0 841.9 595.3;" xml:space="preserve">
<style type="text/css">
	.st0{clip-path:url(#SVGID_2_);fill:#E4E4E4;}
	.st1{clip-path:url(#SVGID_2_);fill:#FFFFFF;}
	.st2{clip-path:url(#SVGID_2_);fill:#FFEB00;}
	.st3{clip-path:url(#SVGID_2_);fill:#1D1D1B;}
</style>
<g>
	<defs>
		<rect id="SVGID_1_" x="133.7" y="7.2" width="571.8" height="577.3"/>
	</defs>
	<clipPath id="SVGID_2_">
		<use xlink:href="#SVGID_1_"  style="overflow:visible;"/>
	</clipPath>
	<path class="st0" d="M273.8,312.9c0,0,9.5-20.4,6.4-86c-3.1-65.6-12.6-91.1,49-137.7c73.1-55.3,117.4-84.7,130-81.9
		c16,3.6,15.9,17-7.1,52.8c-28.5,44.3-16.5,57.9-26.1,84.2c-9.6,26.3-40.8,33.4-42.7,55.3c-1.9,21.8,1.6,157,1.6,157L273.8,312.9z"
		/>
	<path class="st1" d="M187.6,287.4c0,0,16.1,2.2,20.4,5.6c4.2,3.4,2.6,7.5-2.8,14c-6.1,7.4-10,4.1-10,4.1s24.9,47.3,42.9,71.4
		c18,24.2,48.8,60.5,101.7,85.9s49.2,36.3,68.9,68.1c19.7,31.7,35.8,58.6,62.5,44c11.6-6.3,12.6-15.4,11-22.5
		c-0.9-4.3,1.5-8.5,5.7-9.8c1.4-0.4,3-1.1,4.8-2.1c6.3-3.4,4.8-8.6,2.3-12.4c-0.8-1.2,0.3-2.9,1.7-2.5c5.3,1.4,13.2,1.7,18.9-5.9
		c4.3-5.8,5.1-11.9,4.6-16.8c-0.4-4.1,2.9-7.5,7.1-7.7c2.1-0.1,4-0.7,4.8-2.4c0.9-1.9,0.3-4.6-0.7-7.1c-1.4-3.3,0.3-7.1,3.7-8.4
		c2.6-1,4.8-3.1,4.3-7.5c-1.1-10.5-16.4-27.5-62.2-59.2c-21.8-15.1-35.8-24.1-44.4-29.3c-5.6-3.4-6-11.3-0.8-15.3
		c12.9-9.8,33.6-28.1,48.5-53.1c13.5-22.9,25.1-58.5,32.2-83.9c5.5-19.6,18.3-36.3,35.8-46.6c31.3-18.5,76.9-50.9,93.2-62.1
		c46.8-32.3,67.6-82.4,63.2-87.7c-4.4-5.3-29,8.8-70.2,20.9c-41.2,12.1-192.6,41.5-220.3,71.4c-27.7,29.9-46.7,122.9-62.2,152.3
		c-16.9,32-31.6,48.7-64.4,21.2c-32.8-27.4-43.9-40.8-68.2-33.4C195.3,277.9,187.6,287.4,187.6,287.4"/>
	<path class="st2" d="M401.2,437c-2.1,0.2-3.4,2.7-2.1,4.6c9.8,13.9,24,48.9,27.4,55.3c6.8,13.1,23.1,26.1,30.6,33.2
		c1.5,1.4,3.5,2.2,5.5,2.1c5.1-0.3,11,2.4,14.9,4.6c0.3,0.2,0.6,0.2,0.9,0.2c0.9-0.1,1.6-1.1,1.1-2.1c-2.1-4.2-5.3-10.3-8.1-14.3
		c-2.8-4-0.9-6.9,1-8.5c0.9-0.8,0.7-2.2-0.4-2.6c-7.9-2.9-29.8-11.3-34.9-14.9c-6.3-4.5-22.3-46.6-28.8-53.6
		c-2.3-2.5-4.5-3.6-6.3-3.9C401.7,437,401.5,437,401.2,437"/>
	<path class="st2" d="M385.9,470.9c-2.6,0.3-3.4,3.9,1.1,11.5c8.6,14.5,17.9,35.5,28,46c9.7,10.1,28.9,20.4,30.5,21.2l0.2,0.1
		c0.3,0.1,0.6,0.1,0.9,0.1c1.2-0.1,2.2-1.3,1.9-2.6c-0.5-1.7-0.1-3.8,2.2-6.2c0.6-0.6,0.6-1.5,0.2-2.2c-2.5-3.4-10.3-13.2-22.2-15.7
		c-11.8-2.4-29.5-35.5-34.4-45.3C391.9,473.1,388.2,470.7,385.9,470.9"/>
	<path class="st2" d="M210.6,295.6c-3.4-6.9-23.1-8.2-23.1-8.2l0,0c0,0-6.2,2.3-14.6,4.4c-1.5,0.4-2.9,0.6-4.4,0.8
		c-2.4,0.3-4.8,0.3-7.3,0.3c-2.4,0-4.9,0-7.3,0.3c-2.1,0.2-4.1,0.6-6.3,1.3c-5.4,1.7-10,5.8-12.7,8.8c-2.4,2.5-1.4,6.6,1.9,7.6
		c1,0.3,2.2,0.4,3.4,0.2c3.5-0.4,7.6-2.2,12.5-3.8c0.7-0.2,1.5-0.4,2.4-0.5c8.3-0.9,25.5,3,35.4,5.5c1.7,0.4,3.5,0.6,5.2,0.4
		c0.1,0,0.2,0,0.2,0c0,0,0,0,0,0c0.8-0.1,1.5-0.2,2.2-0.4c1.9-0.5,2.9-0.7,5.2-2.6c0,0,0,0,0,0c0.6-0.5,1.1-1,1.7-1.5
		C208.9,304.2,212.4,299.3,210.6,295.6z"/>
	<path class="st3" d="M218.3,290.8c-1.7,2.2-1.5,4.5,0.9,6.6c3.5,3.2,8.9,3.7,11,1c1.9-2.5,1.2-6.2-1.5-8.6
		C225.5,287,221.2,287.3,218.3,290.8"/>
</g>
</svg>
